<mxfile host="app.diagrams.net" modified="2021-06-26T19:54:00.768Z" agent="5.0 (Windows NT 10.0; Win64; x64) AppleWebKit/537.36 (KHTML, like Gecko) Chrome/91.0.4472.114 Safari/537.36" etag="cTOKpV8l3Oh9UABI6jQ-" version="14.8.1" type="github">
  <diagram id="HA0yqUnL6FUzC9u8tDtn" name="aws test">
    <mxGraphModel dx="1038" dy="547" grid="1" gridSize="10" guides="1" tooltips="1" connect="1" arrows="1" fold="1" page="1" pageScale="1" pageWidth="827" pageHeight="1169" math="0" shadow="0">
      <root>
        <mxCell id="0" />
        <mxCell id="1" parent="0" />
        <mxCell id="0BDjIxXhS_XN223edxbW-5" value="&lt;div style=&quot;color: rgb(0 , 0 , 0) ; background-color: rgb(255 , 255 , 254) ; font-weight: normal ; font-size: 10px ; line-height: 18px&quot;&gt;&lt;div&gt;&lt;span style=&quot;color: #000000&quot;&gt;{&lt;/span&gt;&lt;/div&gt;&lt;div&gt;&lt;span style=&quot;color: #000000&quot;&gt;&amp;nbsp;&amp;nbsp;&amp;nbsp;&amp;nbsp;&lt;/span&gt;&lt;span style=&quot;color: #a31515&quot;&gt;&quot;texto&quot;&lt;/span&gt;&lt;span style=&quot;color: #000000&quot;&gt;:&amp;nbsp;&lt;/span&gt;&lt;span style=&quot;color: #0451a5&quot;&gt;&quot;teste&amp;nbsp;1&quot;&lt;/span&gt;&lt;span style=&quot;color: #000000&quot;&gt;,&lt;/span&gt;&lt;/div&gt;&lt;div&gt;&lt;span style=&quot;color: #000000&quot;&gt;&amp;nbsp;&amp;nbsp;&amp;nbsp;&amp;nbsp;&lt;/span&gt;&lt;span style=&quot;color: #a31515&quot;&gt;&quot;itens&quot;&lt;/span&gt;&lt;span style=&quot;color: #000000&quot;&gt;:&amp;nbsp;[&lt;/span&gt;&lt;/div&gt;&lt;div&gt;&lt;span style=&quot;color: #000000&quot;&gt;&amp;nbsp;&amp;nbsp;&amp;nbsp;&amp;nbsp;&amp;nbsp;&amp;nbsp;&amp;nbsp;&amp;nbsp;{&lt;/span&gt;&lt;/div&gt;&lt;div&gt;&lt;span style=&quot;color: #000000&quot;&gt;&amp;nbsp;&amp;nbsp;&amp;nbsp;&amp;nbsp;&amp;nbsp;&amp;nbsp;&amp;nbsp;&amp;nbsp;&amp;nbsp;&amp;nbsp;&amp;nbsp;&amp;nbsp;&lt;/span&gt;&lt;span style=&quot;color: #a31515&quot;&gt;&quot;id&quot;&lt;/span&gt;&lt;span style=&quot;color: #000000&quot;&gt;:&amp;nbsp;&lt;/span&gt;&lt;span style=&quot;color: #0451a5&quot;&gt;&quot;1&quot;&lt;/span&gt;&lt;span style=&quot;color: #000000&quot;&gt;,&lt;/span&gt;&lt;/div&gt;&lt;div&gt;&lt;span style=&quot;color: #000000&quot;&gt;&amp;nbsp;&amp;nbsp;&amp;nbsp;&amp;nbsp;&amp;nbsp;&amp;nbsp;&amp;nbsp;&amp;nbsp;&amp;nbsp;&amp;nbsp;&amp;nbsp;&amp;nbsp;&lt;/span&gt;&lt;span style=&quot;color: #a31515&quot;&gt;&quot;texto&quot;&lt;/span&gt;&lt;span style=&quot;color: #000000&quot;&gt;:&amp;nbsp;&lt;/span&gt;&lt;span style=&quot;color: #0451a5&quot;&gt;&quot;item&amp;nbsp;1&quot;&lt;/span&gt;&lt;/div&gt;&lt;div&gt;&lt;span style=&quot;color: #000000&quot;&gt;&amp;nbsp;&amp;nbsp;&amp;nbsp;&amp;nbsp;&amp;nbsp;&amp;nbsp;&amp;nbsp;&amp;nbsp;}&lt;/span&gt;&lt;/div&gt;&lt;div&gt;&lt;span style=&quot;color: #000000&quot;&gt;&amp;nbsp;&amp;nbsp;&amp;nbsp;&amp;nbsp;]&lt;/span&gt;&lt;/div&gt;&lt;div&gt;&lt;span style=&quot;color: #000000&quot;&gt;}&lt;/span&gt;&lt;/div&gt;&lt;/div&gt;" style="text;whiteSpace=wrap;html=1;" vertex="1" parent="1">
          <mxGeometry x="290" y="120" width="110" height="170" as="geometry" />
        </mxCell>
        <mxCell id="0BDjIxXhS_XN223edxbW-1" value="&lt;b&gt;&lt;font style=&quot;font-size: 14px&quot;&gt;collection: teste_aws&lt;/font&gt;&lt;/b&gt;" style="outlineConnect=0;dashed=0;verticalLabelPosition=bottom;verticalAlign=top;align=center;html=1;shape=mxgraph.aws3.dynamo_db;fillColor=#2E73B8;gradientColor=none;" vertex="1" parent="1">
          <mxGeometry x="130" y="80" width="72" height="81" as="geometry" />
        </mxCell>
        <mxCell id="0BDjIxXhS_XN223edxbW-3" style="edgeStyle=orthogonalEdgeStyle;rounded=0;orthogonalLoop=1;jettySize=auto;html=1;entryX=1;entryY=0.5;entryDx=0;entryDy=0;entryPerimeter=0;" edge="1" parent="1" source="0BDjIxXhS_XN223edxbW-2" target="0BDjIxXhS_XN223edxbW-1">
          <mxGeometry relative="1" as="geometry" />
        </mxCell>
        <mxCell id="0BDjIxXhS_XN223edxbW-2" value="&lt;b&gt;&lt;font style=&quot;font-size: 14px&quot;&gt;post: api/Teste&lt;br&gt;&lt;/font&gt;&lt;/b&gt;" style="points=[[0,0,0],[0.25,0,0],[0.5,0,0],[0.75,0,0],[1,0,0],[0,1,0],[0.25,1,0],[0.5,1,0],[0.75,1,0],[1,1,0],[0,0.25,0],[0,0.5,0],[0,0.75,0],[1,0.25,0],[1,0.5,0],[1,0.75,0]];outlineConnect=0;fontColor=#232F3E;gradientColor=#F78E04;gradientDirection=north;fillColor=#D05C17;strokeColor=#ffffff;dashed=0;verticalLabelPosition=bottom;verticalAlign=top;align=center;html=1;fontSize=12;fontStyle=0;aspect=fixed;shape=mxgraph.aws4.resourceIcon;resIcon=mxgraph.aws4.lambda;" vertex="1" parent="1">
          <mxGeometry x="375" y="330" width="78" height="78" as="geometry" />
        </mxCell>
        <mxCell id="0BDjIxXhS_XN223edxbW-4" value="&lt;b&gt;Envia uma &lt;br&gt;coleção\json de teste&lt;/b&gt;" style="text;html=1;align=center;verticalAlign=middle;resizable=0;points=[];autosize=1;strokeColor=none;" vertex="1" parent="1">
          <mxGeometry x="210" y="290" width="140" height="30" as="geometry" />
        </mxCell>
        <mxCell id="0BDjIxXhS_XN223edxbW-7" value="&lt;font&gt;&lt;b style=&quot;font-size: 12px ; color: rgb(35 , 47 , 62)&quot;&gt;&lt;font style=&quot;font-size: 12px&quot;&gt;&lt;div style=&quot;text-align: left&quot;&gt;&lt;span style=&quot;color: rgb(0 , 0 , 0)&quot;&gt;github:&amp;nbsp;&lt;/span&gt;&lt;/div&gt;&lt;div style=&quot;text-align: left&quot;&gt;&lt;span style=&quot;color: rgb(0 , 0 , 0) ; font-weight: normal&quot;&gt;https://github.com/EricHosokawa/awsserverlessapp.git&lt;/span&gt;&lt;/div&gt;&lt;div style=&quot;text-align: left&quot;&gt;&lt;span style=&quot;color: rgb(0 , 0 , 0) ; font-weight: normal&quot;&gt;&lt;br&gt;&lt;/span&gt;&lt;/div&gt;&lt;/font&gt;&lt;/b&gt;&lt;font style=&quot;font-size: 12px ; color: rgb(35 , 47 , 62)&quot;&gt;&lt;div style=&quot;text-align: left&quot;&gt;&lt;span&gt;&lt;b&gt;bucket:&amp;nbsp;&lt;/b&gt;&lt;/span&gt;&lt;/div&gt;&lt;div style=&quot;text-align: left&quot;&gt;&lt;span&gt;awsserverlessappteste&lt;/span&gt;&lt;/div&gt;&lt;div style=&quot;text-align: left&quot;&gt;&lt;span&gt;&lt;br&gt;&lt;/span&gt;&lt;/div&gt;&lt;div style=&quot;text-align: left&quot;&gt;&lt;b&gt;lambda:&amp;nbsp;&lt;/b&gt;&lt;/div&gt;&lt;div style=&quot;text-align: left&quot;&gt;awsserverlessapp&lt;/div&gt;&lt;/font&gt;&lt;/font&gt;" style="text;html=1;align=center;verticalAlign=middle;resizable=0;points=[];autosize=1;strokeColor=none;" vertex="1" parent="1">
          <mxGeometry x="460" y="320" width="310" height="110" as="geometry" />
        </mxCell>
      </root>
    </mxGraphModel>
  </diagram>
</mxfile>
